<svg width="24" height="24" viewBox="0 0 24 24" xmlns="http://www.w3.org/2000/svg">
  <path fill="#0077B5"
        d="M12 0C5.37 0 0 5.37 0 12
           C0 17.3 3.438 21.8 8.207 23.387
           C8.806 23.498 9.025 23.127 9.025 22.81
           C9.025 22.527 9.015 21.782 9.01 20.803
           C5.672 21.528 4.968 19.61 4.968 19.61
           C4.422 18.215 3.633 17.842 3.633 17.842
           C2.545 17.096 3.717 17.112 3.717 17.112
           C4.922 17.196 5.555 18.348 5.555 18.348
           C6.625 20.182 8.362 19.652 9.05 19.346
           C9.158 18.571 9.467 18.048 9.81 17.75
           C7.145 17.45 4.343 16.41 4.343 11.77
           C4.343 10.45 4.813 9.37 5.579 8.52
           C5.455 8.22 5.045 7.01 5.697 5.39
           C5.697 5.39 6.707 5.06 9.0 6.61
           C9.96 6.34 10.98 6.21 12 6.21
           C13.02 6.21 14.04 6.34 15.0 6.61
           C17.29 5.06 18.3 5.39 18.3 5.39
           C18.95 7.01 18.55 8.22 18.42 8.52
           C19.19 9.37 19.66 10.45 19.66 11.77
           C19.66 16.42 16.85 17.45 14.18 17.74
           C14.61 18.11 15.0 18.84 15.0 19.97
           C15.0 21.58 14.99 22.46 14.99 22.81
           C14.99 23.13 15.2 23.5 15.81 23.39
           C20.57 21.8 24 17.3 24 12
           C24 5.37 18.63 0 12 0Z"/>
</svg>