<svg width="24" height="24" xmlns="http://www.w3.org/2000/svg" xmlns:xlink="http://www.w3.org/1999/xlink" xml:space="preserve" overflow="hidden"><g><path d="M21 12C21 16.9706 16.9706 21 12 21 7.02944 21 3 16.9706 3 12 3 7.02944 7.02944 3 12 3 16.9706 3 21 7.02944 21 12Z" stroke="#0077B5" stroke-width="1.5" fill="none"/><path d="M10 15C7 16 7 14 6 14M14 16 14 14.5C14.0377 13.7674 13.7863 13.0492 13.3 12.5 15.6 12.3 18 11.4 18 7.5 18.0106 6.58552 17.6911 5.69788 17.1 5 17.3508 4.21325 17.3154 3.36315 17 2.6 17 2.6 16.1 2.3 14.2 3.6 12.562 3.16307 10.838 3.16307 9.2 3.6 7.3 2.3 6.4 2.6 6.4 2.6 6.08459 3.36315 6.04917 4.21325 6.3 5 5.70894 5.69788 5.38939 6.58552 5.4 7.5 5.4 11.4 7.8 12.3 10.1 12.5 9.61368 13.0492 9.36233 13.7674 9.4 14.5L9.4 17" stroke="#0077B5" stroke-width="1.5" stroke-linecap="round" stroke-linejoin="round" fill="none"/></g></svg>