<svg width="24" height="24" viewBox="0 0 24 24" xmlns="http://www.w3.org/2000/svg">
  <circle cx="12" cy="12" r="9" fill="none" stroke="#0077B5" stroke-width="1.5"/>
  <path d="M10 15c-3 1-3-1-4-1m8 2v-1.5a2.8 2.8 0 0 0-.7-2c2.3-.2 4.7-1.1 4.7-5a3.8 3.8 0 0 0-.9-2.5 3.5 3.5 0 0 0-.1-2.4s-.9-.3-2.8 1a9.7 9.7 0 0 0-5 0c-1.9-1.3-2.8-1-2.8-1a3.5 3.5 0 0 0-.1 2.4 3.8 3.8 0 0 0-.9 2.5c0 3.9 2.4 4.8 4.7 5a2.8 2.8 0 0 0-.7 2V17" fill="none" stroke="#0077B5" stroke-width="1.5" stroke-linecap="round" stroke-linejoin="round"/>
</svg>