<svg width="24" height="24" xmlns="http://www.w3.org/2000/svg" xmlns:xlink="http://www.w3.org/1999/xlink" xml:space="preserve" overflow="hidden"><g><path d="M19 3C20.1046 3 21 3.89543 21 5L21 19C21 20.1046 20.1046 21 19 21L5 21C3.89543 21 3 20.1046 3 19L3 5C3 3.89543 3.89543 3 5 3Z" stroke="#0077B5" stroke-width="1.5" fill="none"/><path d="M8.8 10C8.8 10.4418 8.44183 10.8 8 10.8 7.55817 10.8 7.2 10.4418 7.2 10 7.2 9.55817 7.55817 9.2 8 9.2 8.44183 9.2 8.8 9.55817 8.8 10Z" fill="#0077B5"/><path d="M7.3 11.5 8.7 11.5 8.7 16.5 7.3 16.5Z" fill="#0077B5"/><path d="M12 11.5 12 16.5M12 13.5C12 12.3 13 11.5 14 11.5 15 11.5 16 12.3 16 13.5L16 16.5" stroke="#0077B5" stroke-width="1.5" stroke-linecap="round" fill="none"/></g></svg>